<mxfile host="app.diagrams.net" agent="Mozilla/5.0 (Windows NT 10.0; Win64; x64) AppleWebKit/537.36 (KHTML, like Gecko) Chrome/135.0.0.0 Safari/537.36" version="26.2.10" pages="7">
  <diagram name="Página-1" id="eor5nRfOKyknUcVxwPzF">
    <mxGraphModel dx="1667" dy="837" grid="1" gridSize="10" guides="1" tooltips="1" connect="1" arrows="1" fold="1" page="1" pageScale="1" pageWidth="827" pageHeight="1169" math="0" shadow="0">
      <root>
        <mxCell id="0" />
        <mxCell id="1" parent="0" />
        <mxCell id="5k2OAVUsL7ZWwxwrt9D1-1" value="Início" style="ellipse;whiteSpace=wrap;html=1;fillColor=#d5e8d4;strokeColor=#82b366;" vertex="1" parent="1">
          <mxGeometry x="20" y="20" width="80" height="80" as="geometry" />
        </mxCell>
        <mxCell id="5k2OAVUsL7ZWwxwrt9D1-2" style="edgeStyle=orthogonalEdgeStyle;rounded=0;orthogonalLoop=1;jettySize=auto;html=1;exitX=0.5;exitY=1;exitDx=0;exitDy=0;entryX=0.5;entryY=0;entryDx=0;entryDy=0;" edge="1" parent="1" source="5k2OAVUsL7ZWwxwrt9D1-3" target="5k2OAVUsL7ZWwxwrt9D1-6">
          <mxGeometry relative="1" as="geometry" />
        </mxCell>
        <mxCell id="5k2OAVUsL7ZWwxwrt9D1-3" value="Carrega includes e conexões com banco" style="shape=process;whiteSpace=wrap;html=1;fillColor=#d5e8d4;strokeColor=#82b366;" vertex="1" parent="1">
          <mxGeometry x="140" y="90" width="180" height="60" as="geometry" />
        </mxCell>
        <mxCell id="5k2OAVUsL7ZWwxwrt9D1-4" style="edgeStyle=orthogonalEdgeStyle;rounded=0;orthogonalLoop=1;jettySize=auto;html=1;exitX=0.5;exitY=1;exitDx=0;exitDy=0;entryX=0.5;entryY=0;entryDx=0;entryDy=0;" edge="1" parent="1" source="5k2OAVUsL7ZWwxwrt9D1-6" target="5k2OAVUsL7ZWwxwrt9D1-23">
          <mxGeometry relative="1" as="geometry" />
        </mxCell>
        <mxCell id="5k2OAVUsL7ZWwxwrt9D1-5" style="edgeStyle=orthogonalEdgeStyle;rounded=0;orthogonalLoop=1;jettySize=auto;html=1;entryX=0;entryY=0.5;entryDx=0;entryDy=0;" edge="1" parent="1" source="5k2OAVUsL7ZWwxwrt9D1-6" target="5k2OAVUsL7ZWwxwrt9D1-24">
          <mxGeometry relative="1" as="geometry" />
        </mxCell>
        <mxCell id="5k2OAVUsL7ZWwxwrt9D1-6" value="Busca todas as &lt;strong data-end=&quot;882&quot; data-start=&quot;853&quot;&gt;opções de opcoes_menu com nível=1&lt;/strong&gt;" style="shape=process;whiteSpace=wrap;html=1;fillColor=#dae8fc;strokeColor=#6c8ebf;" vertex="1" parent="1">
          <mxGeometry x="140" y="170" width="180" height="60" as="geometry" />
        </mxCell>
        <mxCell id="5k2OAVUsL7ZWwxwrt9D1-7" value="Monta um laço com a variável&amp;nbsp;" style="shape=process;whiteSpace=wrap;html=1;fillColor=#d5e8d4;strokeColor=#82b366;" vertex="1" parent="1">
          <mxGeometry x="140" y="330" width="180" height="60" as="geometry" />
        </mxCell>
        <mxCell id="5k2OAVUsL7ZWwxwrt9D1-8" value="Busca todas as opções&amp;nbsp;&lt;strong data-end=&quot;1223&quot; data-start=&quot;1213&quot;&gt;filhas&lt;/strong&gt;&amp;nbsp;do menu principal, ou seja,&amp;nbsp;&lt;strong data-end=&quot;1280&quot; data-start=&quot;1257&quot;&gt;submenus de nível= 2&lt;/strong&gt;." style="shape=process;whiteSpace=wrap;html=1;fillColor=#dae8fc;strokeColor=#6c8ebf;" vertex="1" parent="1">
          <mxGeometry x="115" y="410" width="230" height="60" as="geometry" />
        </mxCell>
        <mxCell id="5k2OAVUsL7ZWwxwrt9D1-9" value="Salva no array" style="shape=process;whiteSpace=wrap;html=1;fillColor=#d5e8d4;strokeColor=#82b366;" vertex="1" parent="1">
          <mxGeometry x="140" y="490" width="180" height="60" as="geometry" />
        </mxCell>
        <mxCell id="5k2OAVUsL7ZWwxwrt9D1-10" value="Busca os &lt;strong data-end=&quot;1743&quot; data-start=&quot;1732&quot;&gt;&quot;netos&quot;&lt;/strong&gt;, ou seja, os &lt;strong data-end=&quot;1780&quot; data-start=&quot;1757&quot;&gt;submenus de nível= 3&lt;/strong&gt;" style="shape=process;whiteSpace=wrap;html=1;fillColor=#dae8fc;strokeColor=#6c8ebf;" vertex="1" parent="1">
          <mxGeometry x="140" y="570" width="180" height="60" as="geometry" />
        </mxCell>
        <mxCell id="5k2OAVUsL7ZWwxwrt9D1-11" value="Salva as &lt;strong data-end=&quot;2008&quot; data-start=&quot;1987&quot;&gt;opções do nível 3&lt;/strong&gt; no mesmo array" style="shape=process;whiteSpace=wrap;html=1;fillColor=#d5e8d4;strokeColor=#82b366;" vertex="1" parent="1">
          <mxGeometry x="140" y="650" width="180" height="60" as="geometry" />
        </mxCell>
        <mxCell id="5k2OAVUsL7ZWwxwrt9D1-12" style="edgeStyle=orthogonalEdgeStyle;rounded=0;orthogonalLoop=1;jettySize=auto;html=1;entryX=0.5;entryY=0;entryDx=0;entryDy=0;" edge="1" parent="1" source="5k2OAVUsL7ZWwxwrt9D1-13" target="5k2OAVUsL7ZWwxwrt9D1-14">
          <mxGeometry relative="1" as="geometry" />
        </mxCell>
        <mxCell id="5k2OAVUsL7ZWwxwrt9D1-13" value="No mesmo array tem todos os niveis estruturados para exibir em árvore" style="shape=process;whiteSpace=wrap;html=1;fillColor=#d5e8d4;strokeColor=#82b366;" vertex="1" parent="1">
          <mxGeometry x="60" y="730" width="340" height="60" as="geometry" />
        </mxCell>
        <mxCell id="5k2OAVUsL7ZWwxwrt9D1-14" value="Exibe opções em tabela HTML" style="shape=process;whiteSpace=wrap;html=1;fillColor=#d5e8d4;strokeColor=#82b366;" vertex="1" parent="1">
          <mxGeometry x="140" y="840" width="180" height="60" as="geometry" />
        </mxCell>
        <mxCell id="5k2OAVUsL7ZWwxwrt9D1-15" value="Fim" style="ellipse;whiteSpace=wrap;html=1;fillColor=#f8cecc;strokeColor=#b85450;" vertex="1" parent="1">
          <mxGeometry x="470" y="935" width="80" height="80" as="geometry" />
        </mxCell>
        <mxCell id="5k2OAVUsL7ZWwxwrt9D1-16" style="endArrow=block;" edge="1" parent="1" source="5k2OAVUsL7ZWwxwrt9D1-1" target="5k2OAVUsL7ZWwxwrt9D1-3">
          <mxGeometry relative="1" as="geometry" />
        </mxCell>
        <mxCell id="5k2OAVUsL7ZWwxwrt9D1-17" style="endArrow=block;" edge="1" parent="1" source="5k2OAVUsL7ZWwxwrt9D1-7" target="5k2OAVUsL7ZWwxwrt9D1-8">
          <mxGeometry relative="1" as="geometry" />
        </mxCell>
        <mxCell id="5k2OAVUsL7ZWwxwrt9D1-18" style="endArrow=block;" edge="1" parent="1" source="5k2OAVUsL7ZWwxwrt9D1-8" target="5k2OAVUsL7ZWwxwrt9D1-9">
          <mxGeometry relative="1" as="geometry" />
        </mxCell>
        <mxCell id="5k2OAVUsL7ZWwxwrt9D1-19" style="endArrow=block;" edge="1" parent="1" source="5k2OAVUsL7ZWwxwrt9D1-9" target="5k2OAVUsL7ZWwxwrt9D1-10">
          <mxGeometry relative="1" as="geometry" />
        </mxCell>
        <mxCell id="5k2OAVUsL7ZWwxwrt9D1-20" style="endArrow=block;" edge="1" parent="1" source="5k2OAVUsL7ZWwxwrt9D1-10" target="5k2OAVUsL7ZWwxwrt9D1-11">
          <mxGeometry relative="1" as="geometry" />
        </mxCell>
        <mxCell id="5k2OAVUsL7ZWwxwrt9D1-21" style="endArrow=block;" edge="1" parent="1" source="5k2OAVUsL7ZWwxwrt9D1-11" target="5k2OAVUsL7ZWwxwrt9D1-13">
          <mxGeometry relative="1" as="geometry" />
        </mxCell>
        <mxCell id="5k2OAVUsL7ZWwxwrt9D1-22" style="edgeStyle=orthogonalEdgeStyle;rounded=0;orthogonalLoop=1;jettySize=auto;html=1;exitX=0.5;exitY=1;exitDx=0;exitDy=0;entryX=0.5;entryY=0;entryDx=0;entryDy=0;" edge="1" parent="1" source="5k2OAVUsL7ZWwxwrt9D1-23" target="5k2OAVUsL7ZWwxwrt9D1-7">
          <mxGeometry relative="1" as="geometry" />
        </mxCell>
        <mxCell id="5k2OAVUsL7ZWwxwrt9D1-23" value="salva na variavel as informações" style="shape=process;whiteSpace=wrap;html=1;fillColor=#d5e8d4;strokeColor=#82b366;" vertex="1" parent="1">
          <mxGeometry x="140" y="250" width="180" height="60" as="geometry" />
        </mxCell>
        <mxCell id="5k2OAVUsL7ZWwxwrt9D1-24" value="consulta no banco" style="whiteSpace=wrap;html=1;fillColor=#dae8fc;strokeColor=#6c8ebf;" vertex="1" parent="1">
          <mxGeometry x="380" y="170" width="120" height="60" as="geometry" />
        </mxCell>
        <mxCell id="5k2OAVUsL7ZWwxwrt9D1-25" style="edgeStyle=orthogonalEdgeStyle;rounded=0;orthogonalLoop=1;jettySize=auto;html=1;entryX=0;entryY=0.5;entryDx=0;entryDy=0;" edge="1" parent="1" source="5k2OAVUsL7ZWwxwrt9D1-26" target="5k2OAVUsL7ZWwxwrt9D1-15">
          <mxGeometry relative="1" as="geometry" />
        </mxCell>
        <mxCell id="5k2OAVUsL7ZWwxwrt9D1-26" value="tabela" style="swimlane;fontStyle=0;childLayout=stackLayout;horizontal=1;startSize=30;horizontalStack=0;resizeParent=1;resizeParentMax=0;resizeLast=0;collapsible=1;marginBottom=0;whiteSpace=wrap;html=1;fillColor=#fff2cc;strokeColor=#d6b656;" vertex="1" parent="1">
          <mxGeometry x="105" y="900" width="250" height="150" as="geometry" />
        </mxCell>
        <mxCell id="5k2OAVUsL7ZWwxwrt9D1-27" value="Nome da opção" style="text;strokeColor=#d79b00;fillColor=#ffe6cc;align=left;verticalAlign=middle;spacingLeft=4;spacingRight=4;overflow=hidden;points=[[0,0.5],[1,0.5]];portConstraint=eastwest;rotatable=0;whiteSpace=wrap;html=1;" vertex="1" parent="5k2OAVUsL7ZWwxwrt9D1-26">
          <mxGeometry y="30" width="250" height="30" as="geometry" />
        </mxCell>
        <mxCell id="5k2OAVUsL7ZWwxwrt9D1-28" value="Nível" style="text;strokeColor=#d79b00;fillColor=#ffe6cc;align=left;verticalAlign=middle;spacingLeft=4;spacingRight=4;overflow=hidden;points=[[0,0.5],[1,0.5]];portConstraint=eastwest;rotatable=0;whiteSpace=wrap;html=1;" vertex="1" parent="5k2OAVUsL7ZWwxwrt9D1-26">
          <mxGeometry y="60" width="250" height="30" as="geometry" />
        </mxCell>
        <mxCell id="5k2OAVUsL7ZWwxwrt9D1-29" value="URL" style="text;strokeColor=#d79b00;fillColor=#ffe6cc;align=left;verticalAlign=middle;spacingLeft=4;spacingRight=4;overflow=hidden;points=[[0,0.5],[1,0.5]];portConstraint=eastwest;rotatable=0;whiteSpace=wrap;html=1;" vertex="1" parent="5k2OAVUsL7ZWwxwrt9D1-26">
          <mxGeometry y="90" width="250" height="30" as="geometry" />
        </mxCell>
        <mxCell id="5k2OAVUsL7ZWwxwrt9D1-30" value="Ações: ativar/desativar, ver mais info, editar, deletar" style="text;strokeColor=#d79b00;fillColor=#ffe6cc;align=left;verticalAlign=middle;spacingLeft=4;spacingRight=4;overflow=hidden;points=[[0,0.5],[1,0.5]];portConstraint=eastwest;rotatable=0;whiteSpace=wrap;html=1;" vertex="1" parent="5k2OAVUsL7ZWwxwrt9D1-26">
          <mxGeometry y="120" width="250" height="30" as="geometry" />
        </mxCell>
      </root>
    </mxGraphModel>
  </diagram>
  <diagram id="Q1RqnRYJaZJZNgpBfLnr" name="Página-2">
    <mxGraphModel dx="1428" dy="785" grid="1" gridSize="10" guides="1" tooltips="1" connect="1" arrows="1" fold="1" page="1" pageScale="1" pageWidth="827" pageHeight="1169" math="0" shadow="0">
      <root>
        <mxCell id="0" />
        <mxCell id="1" parent="0" />
      </root>
    </mxGraphModel>
  </diagram>
  <diagram id="WxORtGfxMTc-r6zfirEU" name="Página-3">
    <mxGraphModel dx="1428" dy="785" grid="1" gridSize="10" guides="1" tooltips="1" connect="1" arrows="1" fold="1" page="1" pageScale="1" pageWidth="827" pageHeight="1169" math="0" shadow="0">
      <root>
        <mxCell id="0" />
        <mxCell id="1" parent="0" />
      </root>
    </mxGraphModel>
  </diagram>
  <diagram id="xSnkBkDvO52_6XmYaAVd" name="Página-4">
    <mxGraphModel dx="1428" dy="785" grid="1" gridSize="10" guides="1" tooltips="1" connect="1" arrows="1" fold="1" page="1" pageScale="1" pageWidth="827" pageHeight="1169" math="0" shadow="0">
      <root>
        <mxCell id="0" />
        <mxCell id="1" parent="0" />
      </root>
    </mxGraphModel>
  </diagram>
  <diagram id="9KydBiVWCyA_9BzNKKiP" name="Página-5">
    <mxGraphModel dx="1428" dy="785" grid="1" gridSize="10" guides="1" tooltips="1" connect="1" arrows="1" fold="1" page="1" pageScale="1" pageWidth="827" pageHeight="1169" math="0" shadow="0">
      <root>
        <mxCell id="0" />
        <mxCell id="1" parent="0" />
      </root>
    </mxGraphModel>
  </diagram>
  <diagram id="V6z3OugPI__LNv2j9hux" name="Página-6">
    <mxGraphModel dx="1428" dy="785" grid="1" gridSize="10" guides="1" tooltips="1" connect="1" arrows="1" fold="1" page="1" pageScale="1" pageWidth="827" pageHeight="1169" math="0" shadow="0">
      <root>
        <mxCell id="0" />
        <mxCell id="1" parent="0" />
      </root>
    </mxGraphModel>
  </diagram>
  <diagram id="xT9tx_f1hL3KVsMjkbsb" name="Página-7">
    <mxGraphModel dx="1680" dy="924" grid="1" gridSize="10" guides="1" tooltips="1" connect="1" arrows="1" fold="1" page="1" pageScale="1" pageWidth="827" pageHeight="1169" background="none" math="0" shadow="1">
      <root>
        <mxCell id="0" />
        <mxCell id="1" parent="0" />
        <mxCell id="GQwy0obW2O0OZL1_OFSf-26" value="Início" style="ellipse;whiteSpace=wrap;html=1;fillColor=#d5e8d4;strokeColor=#82b366;" vertex="1" parent="1">
          <mxGeometry x="20" y="20" width="80" height="80" as="geometry" />
        </mxCell>
        <mxCell id="GQwy0obW2O0OZL1_OFSf-107" style="edgeStyle=orthogonalEdgeStyle;rounded=0;orthogonalLoop=1;jettySize=auto;html=1;exitX=0.5;exitY=1;exitDx=0;exitDy=0;entryX=0.5;entryY=0;entryDx=0;entryDy=0;" edge="1" parent="1" source="GQwy0obW2O0OZL1_OFSf-27" target="GQwy0obW2O0OZL1_OFSf-28">
          <mxGeometry relative="1" as="geometry" />
        </mxCell>
        <mxCell id="GQwy0obW2O0OZL1_OFSf-27" value="Carrega includes e conexões com banco" style="shape=process;whiteSpace=wrap;html=1;fillColor=#d5e8d4;strokeColor=#82b366;" vertex="1" parent="1">
          <mxGeometry x="140" y="90" width="180" height="60" as="geometry" />
        </mxCell>
        <mxCell id="GQwy0obW2O0OZL1_OFSf-108" style="edgeStyle=orthogonalEdgeStyle;rounded=0;orthogonalLoop=1;jettySize=auto;html=1;exitX=0.5;exitY=1;exitDx=0;exitDy=0;entryX=0.5;entryY=0;entryDx=0;entryDy=0;" edge="1" parent="1" source="GQwy0obW2O0OZL1_OFSf-28" target="GQwy0obW2O0OZL1_OFSf-106">
          <mxGeometry relative="1" as="geometry" />
        </mxCell>
        <mxCell id="GQwy0obW2O0OZL1_OFSf-119" style="edgeStyle=orthogonalEdgeStyle;rounded=0;orthogonalLoop=1;jettySize=auto;html=1;entryX=0;entryY=0.5;entryDx=0;entryDy=0;" edge="1" parent="1" source="GQwy0obW2O0OZL1_OFSf-28" target="GQwy0obW2O0OZL1_OFSf-110">
          <mxGeometry relative="1" as="geometry" />
        </mxCell>
        <mxCell id="GQwy0obW2O0OZL1_OFSf-28" value="Busca todas as &lt;strong data-end=&quot;882&quot; data-start=&quot;853&quot;&gt;opções de opcoes_menu com nível=1&lt;/strong&gt;" style="shape=process;whiteSpace=wrap;html=1;fillColor=#dae8fc;strokeColor=#6c8ebf;" vertex="1" parent="1">
          <mxGeometry x="140" y="170" width="180" height="60" as="geometry" />
        </mxCell>
        <mxCell id="GQwy0obW2O0OZL1_OFSf-29" value="Monta um laço com a variável&amp;nbsp;" style="shape=process;whiteSpace=wrap;html=1;fillColor=#d5e8d4;strokeColor=#82b366;" vertex="1" parent="1">
          <mxGeometry x="140" y="330" width="180" height="60" as="geometry" />
        </mxCell>
        <mxCell id="GQwy0obW2O0OZL1_OFSf-30" value="Busca todas as opções&amp;nbsp;&lt;strong data-end=&quot;1223&quot; data-start=&quot;1213&quot;&gt;filhas&lt;/strong&gt;&amp;nbsp;do menu principal, ou seja,&amp;nbsp;&lt;strong data-end=&quot;1280&quot; data-start=&quot;1257&quot;&gt;submenus de nível= 2&lt;/strong&gt;." style="shape=process;whiteSpace=wrap;html=1;fillColor=#dae8fc;strokeColor=#6c8ebf;" vertex="1" parent="1">
          <mxGeometry x="115" y="410" width="230" height="60" as="geometry" />
        </mxCell>
        <mxCell id="GQwy0obW2O0OZL1_OFSf-31" value="Salva no array" style="shape=process;whiteSpace=wrap;html=1;fillColor=#d5e8d4;strokeColor=#82b366;" vertex="1" parent="1">
          <mxGeometry x="140" y="490" width="180" height="60" as="geometry" />
        </mxCell>
        <mxCell id="GQwy0obW2O0OZL1_OFSf-32" value="Busca os &lt;strong data-end=&quot;1743&quot; data-start=&quot;1732&quot;&gt;&quot;netos&quot;&lt;/strong&gt;, ou seja, os &lt;strong data-end=&quot;1780&quot; data-start=&quot;1757&quot;&gt;submenus de nível= 3&lt;/strong&gt;" style="shape=process;whiteSpace=wrap;html=1;fillColor=#dae8fc;strokeColor=#6c8ebf;" vertex="1" parent="1">
          <mxGeometry x="140" y="570" width="180" height="60" as="geometry" />
        </mxCell>
        <mxCell id="GQwy0obW2O0OZL1_OFSf-33" value="Salva as &lt;strong data-end=&quot;2008&quot; data-start=&quot;1987&quot;&gt;opções do nível 3&lt;/strong&gt; no mesmo array" style="shape=process;whiteSpace=wrap;html=1;fillColor=#d5e8d4;strokeColor=#82b366;" vertex="1" parent="1">
          <mxGeometry x="140" y="650" width="180" height="60" as="geometry" />
        </mxCell>
        <mxCell id="GQwy0obW2O0OZL1_OFSf-118" style="edgeStyle=orthogonalEdgeStyle;rounded=0;orthogonalLoop=1;jettySize=auto;html=1;entryX=0.5;entryY=0;entryDx=0;entryDy=0;" edge="1" parent="1" source="GQwy0obW2O0OZL1_OFSf-34" target="GQwy0obW2O0OZL1_OFSf-38">
          <mxGeometry relative="1" as="geometry" />
        </mxCell>
        <mxCell id="GQwy0obW2O0OZL1_OFSf-34" value="No mesmo array tem todos os niveis estruturados para exibir em árvore" style="shape=process;whiteSpace=wrap;html=1;fillColor=#d5e8d4;strokeColor=#82b366;" vertex="1" parent="1">
          <mxGeometry x="60" y="730" width="340" height="60" as="geometry" />
        </mxCell>
        <mxCell id="GQwy0obW2O0OZL1_OFSf-38" value="Exibe opções em tabela HTML" style="shape=process;whiteSpace=wrap;html=1;fillColor=#d5e8d4;strokeColor=#82b366;" vertex="1" parent="1">
          <mxGeometry x="140" y="840" width="180" height="60" as="geometry" />
        </mxCell>
        <mxCell id="GQwy0obW2O0OZL1_OFSf-39" value="Fim" style="ellipse;whiteSpace=wrap;html=1;fillColor=#f8cecc;strokeColor=#b85450;" vertex="1" parent="1">
          <mxGeometry x="470" y="935" width="80" height="80" as="geometry" />
        </mxCell>
        <mxCell id="GQwy0obW2O0OZL1_OFSf-40" style="endArrow=block;" edge="1" parent="1" source="GQwy0obW2O0OZL1_OFSf-26" target="GQwy0obW2O0OZL1_OFSf-27">
          <mxGeometry relative="1" as="geometry" />
        </mxCell>
        <mxCell id="GQwy0obW2O0OZL1_OFSf-43" style="endArrow=block;" edge="1" parent="1" source="GQwy0obW2O0OZL1_OFSf-29" target="GQwy0obW2O0OZL1_OFSf-30">
          <mxGeometry relative="1" as="geometry" />
        </mxCell>
        <mxCell id="GQwy0obW2O0OZL1_OFSf-44" style="endArrow=block;" edge="1" parent="1" source="GQwy0obW2O0OZL1_OFSf-30" target="GQwy0obW2O0OZL1_OFSf-31">
          <mxGeometry relative="1" as="geometry" />
        </mxCell>
        <mxCell id="GQwy0obW2O0OZL1_OFSf-45" style="endArrow=block;" edge="1" parent="1" source="GQwy0obW2O0OZL1_OFSf-31" target="GQwy0obW2O0OZL1_OFSf-32">
          <mxGeometry relative="1" as="geometry" />
        </mxCell>
        <mxCell id="GQwy0obW2O0OZL1_OFSf-46" style="endArrow=block;" edge="1" parent="1" source="GQwy0obW2O0OZL1_OFSf-32" target="GQwy0obW2O0OZL1_OFSf-33">
          <mxGeometry relative="1" as="geometry" />
        </mxCell>
        <mxCell id="GQwy0obW2O0OZL1_OFSf-47" style="endArrow=block;" edge="1" parent="1" source="GQwy0obW2O0OZL1_OFSf-33" target="GQwy0obW2O0OZL1_OFSf-34">
          <mxGeometry relative="1" as="geometry" />
        </mxCell>
        <mxCell id="GQwy0obW2O0OZL1_OFSf-109" style="edgeStyle=orthogonalEdgeStyle;rounded=0;orthogonalLoop=1;jettySize=auto;html=1;exitX=0.5;exitY=1;exitDx=0;exitDy=0;entryX=0.5;entryY=0;entryDx=0;entryDy=0;" edge="1" parent="1" source="GQwy0obW2O0OZL1_OFSf-106" target="GQwy0obW2O0OZL1_OFSf-29">
          <mxGeometry relative="1" as="geometry" />
        </mxCell>
        <mxCell id="GQwy0obW2O0OZL1_OFSf-106" value="salva na variavel as informações" style="shape=process;whiteSpace=wrap;html=1;fillColor=#d5e8d4;strokeColor=#82b366;" vertex="1" parent="1">
          <mxGeometry x="140" y="250" width="180" height="60" as="geometry" />
        </mxCell>
        <mxCell id="GQwy0obW2O0OZL1_OFSf-110" value="consulta no banco" style="whiteSpace=wrap;html=1;fillColor=#dae8fc;strokeColor=#6c8ebf;" vertex="1" parent="1">
          <mxGeometry x="380" y="170" width="120" height="60" as="geometry" />
        </mxCell>
        <mxCell id="GQwy0obW2O0OZL1_OFSf-120" style="edgeStyle=orthogonalEdgeStyle;rounded=0;orthogonalLoop=1;jettySize=auto;html=1;entryX=0;entryY=0.5;entryDx=0;entryDy=0;" edge="1" parent="1" source="GQwy0obW2O0OZL1_OFSf-112" target="GQwy0obW2O0OZL1_OFSf-39">
          <mxGeometry relative="1" as="geometry" />
        </mxCell>
        <mxCell id="GQwy0obW2O0OZL1_OFSf-112" value="tabela" style="swimlane;fontStyle=0;childLayout=stackLayout;horizontal=1;startSize=30;horizontalStack=0;resizeParent=1;resizeParentMax=0;resizeLast=0;collapsible=1;marginBottom=0;whiteSpace=wrap;html=1;fillColor=#fff2cc;strokeColor=#d6b656;" vertex="1" parent="1">
          <mxGeometry x="105" y="900" width="250" height="150" as="geometry" />
        </mxCell>
        <mxCell id="GQwy0obW2O0OZL1_OFSf-114" value="Nome da opção" style="text;strokeColor=#d79b00;fillColor=#ffe6cc;align=left;verticalAlign=middle;spacingLeft=4;spacingRight=4;overflow=hidden;points=[[0,0.5],[1,0.5]];portConstraint=eastwest;rotatable=0;whiteSpace=wrap;html=1;" vertex="1" parent="GQwy0obW2O0OZL1_OFSf-112">
          <mxGeometry y="30" width="250" height="30" as="geometry" />
        </mxCell>
        <mxCell id="GQwy0obW2O0OZL1_OFSf-115" value="Nível" style="text;strokeColor=#d79b00;fillColor=#ffe6cc;align=left;verticalAlign=middle;spacingLeft=4;spacingRight=4;overflow=hidden;points=[[0,0.5],[1,0.5]];portConstraint=eastwest;rotatable=0;whiteSpace=wrap;html=1;" vertex="1" parent="GQwy0obW2O0OZL1_OFSf-112">
          <mxGeometry y="60" width="250" height="30" as="geometry" />
        </mxCell>
        <mxCell id="GQwy0obW2O0OZL1_OFSf-116" value="URL" style="text;strokeColor=#d79b00;fillColor=#ffe6cc;align=left;verticalAlign=middle;spacingLeft=4;spacingRight=4;overflow=hidden;points=[[0,0.5],[1,0.5]];portConstraint=eastwest;rotatable=0;whiteSpace=wrap;html=1;" vertex="1" parent="GQwy0obW2O0OZL1_OFSf-112">
          <mxGeometry y="90" width="250" height="30" as="geometry" />
        </mxCell>
        <mxCell id="GQwy0obW2O0OZL1_OFSf-117" value="Ações: ativar/desativar, ver mais info, editar, deletar" style="text;strokeColor=#d79b00;fillColor=#ffe6cc;align=left;verticalAlign=middle;spacingLeft=4;spacingRight=4;overflow=hidden;points=[[0,0.5],[1,0.5]];portConstraint=eastwest;rotatable=0;whiteSpace=wrap;html=1;" vertex="1" parent="GQwy0obW2O0OZL1_OFSf-112">
          <mxGeometry y="120" width="250" height="30" as="geometry" />
        </mxCell>
      </root>
    </mxGraphModel>
  </diagram>
</mxfile>
